# xmcd CD database file
#
# Track frame offsets:
#	182
#	22020
#	46060
#
# Disc length: 902 seconds
#
# Revision: 0
# Processed by: cddbd v1.4PL0 Copyright (c) Steve Scherf et al.
# Submitted via: CDex 1.51
#
DISCID=1b038403
DTITLE=Bo Diddley - Selections from A Man Amongst Men
DYEAR=1996
DGENRE=Blues
TTITLE0=Bo Diddley is Crazy
TTITLE1=Can I Walk You Home
TTITLE2=Hey Baby
EXTD=YEAR: 1996
EXTT0=
EXTT1=
EXTT2=
PLAYORDER=
